<svg width="18" height="18" viewBox="0 0 18 18" fill="none" xmlns="http://www.w3.org/2000/svg">
<path d="M9.89987 8.09989H4.49994C4.26125 8.09989 4.03233 8.19471 3.86355 8.36349C3.69477 8.53227 3.59995 8.76119 3.59995 8.99988C3.59995 9.23857 3.69477 9.46748 3.86355 9.63627C4.03233 9.80505 4.26125 9.89987 4.49994 9.89987H9.89987C10.1386 9.89987 10.3675 9.80505 10.5363 9.63627C10.705 9.46748 10.7999 9.23857 10.7999 8.99988C10.7999 8.76119 10.705 8.53227 10.5363 8.36349C10.3675 8.19471 10.1386 8.09989 9.89987 8.09989ZM13.4998 4.49994H4.49994C4.26125 4.49994 4.03233 4.59476 3.86355 4.76354C3.69477 4.93232 3.59995 5.16124 3.59995 5.39993C3.59995 5.63862 3.69477 5.86753 3.86355 6.03631C4.03233 6.20509 4.26125 6.29991 4.49994 6.29991H13.4998C13.7385 6.29991 13.9674 6.20509 14.1362 6.03631C14.305 5.86753 14.3998 5.63862 14.3998 5.39993C14.3998 5.16124 14.305 4.93232 14.1362 4.76354C13.9674 4.59476 13.7385 4.49994 13.4998 4.49994ZM15.2998 0H2.69996C1.98389 0 1.29714 0.28446 0.790801 0.790801C0.28446 1.29714 0 1.98389 0 2.69996V11.6998C0 12.4159 0.28446 13.1027 0.790801 13.609C1.29714 14.1153 1.98389 14.3998 2.69996 14.3998H13.1308L16.4608 17.7388C16.5449 17.8222 16.6446 17.8882 16.7543 17.9329C16.8639 17.9777 16.9813 18.0004 17.0998 17.9998C17.2178 18.0028 17.335 17.9781 17.4418 17.9278C17.6061 17.8602 17.7468 17.7456 17.8461 17.5982C17.9454 17.4509 17.9989 17.2774 17.9998 17.0998V2.69996C17.9998 1.98389 17.7153 1.29714 17.209 0.790801C16.7026 0.28446 16.0159 0 15.2998 0ZM16.1998 14.9308L14.1388 12.8608C14.0547 12.7774 13.955 12.7114 13.8453 12.6666C13.7357 12.6218 13.6183 12.5991 13.4998 12.5998H2.69996C2.46127 12.5998 2.23236 12.505 2.06358 12.3362C1.8948 12.1674 1.79998 11.9385 1.79998 11.6998V2.69996C1.79998 2.46127 1.8948 2.23236 2.06358 2.06358C2.23236 1.8948 2.46127 1.79998 2.69996 1.79998H15.2998C15.5385 1.79998 15.7674 1.8948 15.9362 2.06358C16.105 2.23236 16.1998 2.46127 16.1998 2.69996V14.9308Z" fill="white"/>
</svg>
