<svg width="16" height="16" viewBox="0 0 16 16" fill="none" xmlns="http://www.w3.org/2000/svg">
<path d="M14.879 5.753V3.434L12.547 2.268L10.279 0L8 0.569L5.721 0L3.453 2.268L1.121 3.434V5.753L0 7.995L1.121 10.237V12.556L3.454 13.722L5.722 15.99L8 15.42L10.279 15.989L12.547 13.721L14.88 12.555V10.236L16 7.995L14.879 5.753ZM13.821 9.987V11.9L12 12.813L9.958 14.813L8 14.328L6.045 14.817L4.14 12.912L2.178 11.9V9.987L1.183 7.995L2.179 6V4.088L4 3.176L6.043 1.176L8 1.661L9.955 1.172L11.86 3.077L13.822 4.089V6L14.816 7.992L13.821 9.987Z" fill="black"/>
<path d="M10.7931 4.45585L4.461 10.788L5.207 11.534L11.5391 5.20185L10.7931 4.45585Z" fill="black"/>
<path d="M5.882 7.459C6.19509 7.459 6.50114 7.36616 6.76147 7.19222C7.02179 7.01827 7.22469 6.77104 7.3445 6.48179C7.46431 6.19253 7.49566 5.87424 7.43458 5.56717C7.3735 5.2601 7.22274 4.97804 7.00135 4.75665C6.77996 4.53526 6.4979 4.3845 6.19083 4.32342C5.88376 4.26234 5.56547 4.29369 5.27621 4.4135C4.98696 4.53331 4.73973 4.73621 4.56578 4.99653C4.39184 5.25686 4.299 5.56291 4.299 5.876C4.29953 6.29568 4.46648 6.69801 4.76323 6.99477C5.05999 7.29152 5.46232 7.45847 5.882 7.459ZM5.882 5.348C5.98643 5.348 6.08851 5.37897 6.17534 5.43698C6.26217 5.495 6.32985 5.57746 6.36981 5.67394C6.40977 5.77042 6.42023 5.87659 6.39985 5.97901C6.37948 6.08143 6.32919 6.17551 6.25535 6.24935C6.18151 6.32319 6.08743 6.37348 5.98501 6.39385C5.88259 6.41423 5.77642 6.40377 5.67994 6.36381C5.58346 6.32385 5.501 6.25617 5.44298 6.16934C5.38497 6.08251 5.354 5.98043 5.354 5.876C5.354 5.73597 5.40963 5.60167 5.50865 5.50265C5.60767 5.40363 5.74197 5.348 5.882 5.348Z" fill="black"/>
<path d="M10.118 8.53C9.80491 8.53 9.49886 8.62284 9.23853 8.79678C8.97821 8.97072 8.77531 9.21796 8.6555 9.50721C8.53569 9.79647 8.50434 10.1148 8.56542 10.4218C8.6265 10.7289 8.77726 11.011 8.99865 11.2323C9.22004 11.4537 9.5021 11.6045 9.80917 11.6656C10.1162 11.7267 10.4345 11.6953 10.7238 11.5755C11.013 11.4557 11.2603 11.2528 11.4342 10.9925C11.6082 10.7321 11.701 10.4261 11.701 10.113C11.7005 9.69332 11.5335 9.29099 11.2368 8.99423C10.94 8.69748 10.5377 8.53053 10.118 8.53ZM10.118 10.641C10.0136 10.641 9.91149 10.61 9.82466 10.552C9.73783 10.494 9.67016 10.4115 9.63019 10.3151C9.59023 10.2186 9.57977 10.1124 9.60015 10.01C9.62052 9.90757 9.67081 9.81349 9.74465 9.73965C9.81849 9.6658 9.91257 9.61552 10.015 9.59514C10.1174 9.57477 10.2236 9.58523 10.3201 9.62519C10.4165 9.66515 10.499 9.73283 10.557 9.81966C10.615 9.90649 10.646 10.0086 10.646 10.113C10.646 10.253 10.5904 10.3873 10.4914 10.4864C10.3923 10.5854 10.258 10.641 10.118 10.641Z" fill="black"/>
</svg>
