<svg width="245" height="36" viewBox="0 0 245 36" fill="none" xmlns="http://www.w3.org/2000/svg">
<path d="M35.8909 13.5792C35.768 13.1691 35.5325 12.8017 35.2111 12.5188C34.8896 12.236 34.4953 12.049 34.0729 11.9792L24.3638 10.5002L20.0208 1.31318C19.8471 0.922314 19.5638 0.590218 19.2052 0.357138C18.8465 0.124058 18.428 0 18.0003 0C17.5726 0 17.154 0.124058 16.7954 0.357138C16.4368 0.590218 16.1535 0.922314 15.9798 1.31318L11.6387 10.5002L1.92969 11.9762C1.50701 12.0454 1.11232 12.2321 0.790808 12.515C0.469293 12.798 0.233939 13.1658 0.111683 13.5762C-0.0192296 13.9924 -0.0353751 14.4361 0.0649503 14.8606C0.165276 15.2852 0.378351 15.6748 0.681686 15.9883L7.70773 23.1423L6.04972 33.2424C5.97786 33.6713 6.0236 34.1117 6.18208 34.5167C6.34055 34.9217 6.60584 35.2761 6.94972 35.5424C7.28437 35.7999 7.68695 35.954 8.108 35.9858C8.52904 36.0176 8.95021 35.9257 9.31974 35.7214L18.0008 30.9593L26.6848 35.7294C27.0547 35.9337 27.4762 36.0256 27.8976 35.9938C28.3189 35.962 28.7218 35.8079 29.0568 35.5504C29.4007 35.2841 29.666 34.9297 29.8245 34.5247C29.983 34.1197 30.0287 33.6793 29.9569 33.2504L28.2988 23.1503L35.3249 15.9963C35.6276 15.6813 35.8399 15.2907 35.9395 14.8654C36.0391 14.4401 36.0223 13.9958 35.8909 13.5792Z" fill="#FFCC00"/>
<path d="M87.8912 13.5792C87.7683 13.1691 87.5328 12.8017 87.2113 12.5188C86.8899 12.236 86.4956 12.049 86.0732 11.9792L76.3641 10.5002L72.0211 1.31318C71.8474 0.922314 71.5641 0.590218 71.2055 0.357138C70.8468 0.124058 70.4283 0 70.0006 0C69.5729 0 69.1543 0.124058 68.7957 0.357138C68.4371 0.590218 68.1538 0.922314 67.9801 1.31318L63.639 10.5002L53.93 11.9762C53.5073 12.0454 53.1126 12.2321 52.7911 12.515C52.4696 12.798 52.2342 13.1658 52.112 13.5762C51.9811 13.9924 51.9649 14.4361 52.0652 14.8606C52.1656 15.2852 52.3786 15.6748 52.682 15.9883L59.708 23.1423L58.05 33.2424C57.9782 33.6713 58.0239 34.1117 58.1824 34.5167C58.3409 34.9217 58.6061 35.2761 58.95 35.5424C59.2847 35.7999 59.6872 35.954 60.1083 35.9858C60.5293 36.0176 60.9505 35.9257 61.32 35.7214L70.0011 30.9593L78.6851 35.7294C79.055 35.9337 79.4765 36.0256 79.8979 35.9938C80.3192 35.962 80.7221 35.8079 81.0571 35.5504C81.401 35.2841 81.6663 34.9297 81.8248 34.5247C81.9833 34.1197 82.029 33.6793 81.9572 33.2504L80.2991 23.1503L87.3252 15.9963C87.6279 15.6813 87.8402 15.2907 87.9398 14.8654C88.0394 14.4401 88.0226 13.9958 87.8912 13.5792Z" fill="#FFCC00"/>
<path d="M139.891 13.5792C139.769 13.1691 139.533 12.8017 139.212 12.5188C138.89 12.236 138.496 12.049 138.073 11.9792L128.364 10.5002L124.021 1.31318C123.848 0.922314 123.564 0.590218 123.206 0.357138C122.847 0.124058 122.429 0 122.001 0C121.573 0 121.155 0.124058 120.796 0.357138C120.437 0.590218 120.154 0.922314 119.98 1.31318L115.639 10.5002L105.93 11.9762C105.508 12.0454 105.113 12.2321 104.791 12.515C104.47 12.798 104.235 13.1658 104.112 13.5762C103.981 13.9924 103.965 14.4361 104.066 14.8606C104.166 15.2852 104.379 15.6748 104.682 15.9883L111.708 23.1423L110.05 33.2424C109.978 33.6713 110.024 34.1117 110.183 34.5167C110.341 34.9217 110.606 35.2761 110.95 35.5424C111.285 35.7999 111.688 35.954 112.109 35.9858C112.53 36.0176 112.951 35.9257 113.32 35.7214L122.001 30.9593L130.685 35.7294C131.055 35.9337 131.477 36.0256 131.898 35.9938C132.32 35.962 132.722 35.8079 133.057 35.5504C133.401 35.2841 133.667 34.9297 133.825 34.5247C133.984 34.1197 134.029 33.6793 133.957 33.2504L132.299 23.1503L139.325 15.9963C139.628 15.6813 139.84 15.2907 139.94 14.8654C140.04 14.4401 140.023 13.9958 139.891 13.5792Z" fill="#FFCC00"/>
<path d="M191.892 13.5792C191.769 13.1691 191.533 12.8017 191.212 12.5188C190.891 12.236 190.496 12.049 190.074 11.9792L180.365 10.5002L176.022 1.31318C175.848 0.922314 175.565 0.590218 175.206 0.357138C174.847 0.124058 174.429 0 174.001 0C173.573 0 173.155 0.124058 172.796 0.357138C172.438 0.590218 172.154 0.922314 171.981 1.31318L167.64 10.5002L157.931 11.9762C157.508 12.0454 157.113 12.2321 156.792 12.515C156.47 12.798 156.235 13.1658 156.113 13.5762C155.982 13.9924 155.966 14.4361 156.066 14.8606C156.166 15.2852 156.379 15.6748 156.683 15.9883L163.709 23.1423L162.051 33.2424C161.979 33.6713 162.024 34.1117 162.183 34.5167C162.341 34.9217 162.607 35.2761 162.951 35.5424C163.285 35.7999 163.688 35.954 164.109 35.9858C164.53 36.0176 164.951 35.9257 165.321 35.7214L174.002 30.9593L182.686 35.7294C183.056 35.9337 183.477 36.0256 183.898 35.9938C184.32 35.962 184.723 35.8079 185.058 35.5504C185.402 35.2841 185.667 34.9297 185.825 34.5247C185.984 34.1197 186.03 33.6793 185.958 33.2504L184.3 23.1503L191.326 15.9963C191.628 15.6813 191.841 15.2907 191.94 14.8654C192.04 14.4401 192.023 13.9958 191.892 13.5792Z" fill="#FFCC00"/>
<path d="M243.892 13.5792C243.769 13.1691 243.534 12.8017 243.212 12.5188C242.891 12.236 242.497 12.049 242.074 11.9792L232.365 10.5002L228.022 1.31318C227.848 0.922314 227.565 0.590218 227.206 0.357138C226.848 0.124058 226.429 0 226.001 0C225.574 0 225.155 0.124058 224.797 0.357138C224.438 0.590218 224.155 0.922314 223.981 1.31318L219.64 10.5002L209.931 11.9762C209.508 12.0454 209.114 12.2321 208.792 12.515C208.47 12.798 208.235 13.1658 208.113 13.5762C207.982 13.9924 207.966 14.4361 208.066 14.8606C208.166 15.2852 208.38 15.6748 208.683 15.9883L215.709 23.1423L214.051 33.2424C213.979 33.6713 214.025 34.1117 214.183 34.5167C214.342 34.9217 214.607 35.2761 214.951 35.5424C215.286 35.7999 215.688 35.954 216.109 35.9858C216.53 36.0176 216.951 35.9257 217.321 35.7214L226.002 30.9593L234.686 35.7294C235.056 35.9337 235.477 36.0256 235.899 35.9938C236.32 35.962 236.723 35.8079 237.058 35.5504C237.402 35.2841 237.667 34.9297 237.826 34.5247C237.984 34.1197 238.03 33.6793 237.958 33.2504L236.3 23.1503L243.326 15.9963C243.629 15.6813 243.841 15.2907 243.941 14.8654C244.04 14.4401 244.024 13.9958 243.892 13.5792Z" fill="#F2F2F2"/>
</svg>
