<svg width="10" height="17" viewBox="0 0 10 17" fill="none" xmlns="http://www.w3.org/2000/svg">
<path d="M6.17249 8.49681L0.370954 2.18012C0.133291 1.93973 0 1.61532 0 1.27728C0 0.939242 0.133291 0.614834 0.370954 0.374443C0.48786 0.255844 0.627174 0.161666 0.780799 0.0973848C0.934424 0.0331032 1.0993 0 1.26583 0C1.43236 0 1.59723 0.0331032 1.75085 0.0973848C1.90448 0.161666 2.04379 0.255844 2.1607 0.374443L9.23471 7.59716C9.47161 7.83795 9.60438 8.16221 9.60438 8.5C9.60438 8.83779 9.47161 9.16204 9.23471 9.40284L2.1607 16.6255C2.04379 16.7441 1.90448 16.8383 1.75085 16.9026C1.59723 16.9669 1.43236 17 1.26583 17C1.0993 17 0.934424 16.9669 0.780799 16.9026C0.627174 16.8383 0.48786 16.7441 0.370954 16.6255C0.133291 16.3852 0 16.0607 0 15.7227C0 15.3847 0.133291 15.0603 0.370954 14.8199L6.17249 8.49681Z" fill="black"/>
</svg>
