<svg width="17" height="17" viewBox="0 0 17 17" fill="none" xmlns="http://www.w3.org/2000/svg">
<path d="M16.945 6.41448C16.8872 6.22065 16.776 6.04697 16.6243 5.91325C16.4725 5.77953 16.2863 5.69114 16.0867 5.65817L11.5031 4.96241L9.45516 0.624239C9.37362 0.438607 9.2398 0.280729 9.07003 0.169879C8.90027 0.0590281 8.7019 0 8.49915 0C8.2964 0 8.09803 0.0590281 7.92826 0.169879C7.7585 0.280729 7.62468 0.438607 7.54314 0.624239L5.49515 4.96241L0.911606 5.65817C0.711952 5.6909 0.525554 5.7792 0.373759 5.91296C0.221965 6.04672 0.110912 6.22053 0.0533206 6.41448C-0.00878507 6.61072 -0.0167981 6.82007 0.030126 7.02048C0.0770502 7.22089 0.177173 7.40493 0.319941 7.5532L3.6373 10.9311L2.85443 15.7005C2.82031 15.9032 2.84181 16.1112 2.91664 16.3026C2.99146 16.494 3.11681 16.6615 3.27933 16.7872C3.43733 16.9086 3.62736 16.9812 3.82607 16.9961C4.02477 17.011 4.22351 16.9676 4.39786 16.8711L8.49915 14.6202L12.5994 16.8722C12.7739 16.9686 12.9728 17.012 13.1717 16.9971C13.3705 16.9822 13.5607 16.9096 13.719 16.7883C13.8815 16.6625 14.0068 16.495 14.0817 16.3037C14.1565 16.1123 14.178 15.9042 14.1439 15.7016L13.361 10.9322L16.6784 7.5532C16.8207 7.40468 16.9206 7.22064 16.9675 7.02032C17.0144 6.82001 17.0066 6.61076 16.945 6.41448Z" fill="#FFCC00"/>
</svg>
