<svg width="11" height="14" viewBox="0 0 11 14" fill="none" xmlns="http://www.w3.org/2000/svg">
<path d="M5.38191 14C4.82699 14 2.19214 10.7419 1.54643 9.69427C0.580043 8.46103 0.0376625 6.94874 0 5.38242C0 3.95491 0.567074 2.58587 1.57647 1.57647C2.58587 0.567074 3.95491 0 5.38242 0C6.80992 0 8.17896 0.567074 9.18836 1.57647C10.1978 2.58587 10.7648 3.95491 10.7648 5.38242C10.7648 7.10838 10.1895 8.04073 9.23472 9.58614L9.17046 9.69121C8.50537 10.7715 5.92561 14 5.38191 14ZM5.38191 2.69248C4.84964 2.69248 4.32933 2.85033 3.88679 3.14606C3.44424 3.44179 3.09933 3.86212 2.89569 4.35389C2.69205 4.84566 2.63882 5.38677 2.74273 5.90879C2.84665 6.43081 3.10304 6.91029 3.47948 7.28659C3.85592 7.66289 4.33549 7.91909 4.85755 8.02281C5.37961 8.12653 5.92071 8.07309 6.4124 7.86926C6.90409 7.66543 7.32429 7.32037 7.61985 6.87771C7.91541 6.43505 8.07306 5.91468 8.07286 5.38242C8.07205 4.66898 7.78828 3.985 7.2838 3.48052C6.77933 2.97604 6.09534 2.69227 5.38191 2.69146V2.69248Z" fill="#F52D56"/>
</svg>
