<svg width="12" height="13" viewBox="0 0 12 13" fill="none" xmlns="http://www.w3.org/2000/svg">
<path d="M0.335624 0.336939C0.229228 0.443185 0.144821 0.569364 0.0872318 0.708259C0.0296423 0.847154 0 0.99604 0 1.1464C0 1.29676 0.0296423 1.44565 0.0872318 1.58454C0.144821 1.72344 0.229228 1.84962 0.335624 1.95586L4.38143 6.00167L0.335624 10.0435C0.229324 10.1498 0.145002 10.276 0.0874731 10.4149C0.0299439 10.5538 0.000334249 10.7026 0.000334247 10.8529C0.000334245 11.0033 0.0299439 11.1521 0.0874731 11.291C0.145002 11.4299 0.229324 11.5561 0.335624 11.6624C0.441924 11.7687 0.568121 11.853 0.707008 11.9106C0.845896 11.9681 0.994755 11.9977 1.14509 11.9977C1.29542 11.9977 1.44428 11.9681 1.58316 11.9106C1.72205 11.853 1.84825 11.7687 1.95455 11.6624L6.00036 7.6166L10.0422 11.6654C10.1487 11.7719 10.2751 11.8564 10.4142 11.914C10.5534 11.9717 10.7025 12.0013 10.8531 12.0013C11.0037 12.0013 11.1529 11.9717 11.292 11.914C11.4312 11.8564 11.5576 11.7719 11.6641 11.6654C11.7706 11.5589 11.8551 11.4325 11.9127 11.2933C11.9703 11.1542 12 11.0051 12 10.8544C12 10.7038 11.9703 10.5547 11.9127 10.4156C11.8551 10.2764 11.7706 10.15 11.6641 10.0435L7.61828 5.99767L11.6641 1.95186C11.8782 1.73678 11.9982 1.44544 11.9975 1.14193C11.9969 0.838413 11.8757 0.547591 11.6606 0.333439C11.4455 0.119287 11.1542 -0.000653667 10.8507 2.67965e-06C10.5471 0.000659026 10.2563 0.121859 10.0422 0.336939L5.99636 4.38275L1.95355 0.336939C1.84732 0.230693 1.7212 0.146413 1.5824 0.0889119C1.4436 0.0314109 1.29483 0.00181505 1.14459 0.00181505C0.994344 0.00181505 0.845574 0.0314109 0.706772 0.0889119C0.567969 0.146413 0.441852 0.230693 0.335624 0.336939Z" fill="black"/>
</svg>
