<svg width="9" height="5" viewBox="0 0 9 5" fill="none" xmlns="http://www.w3.org/2000/svg">
<path d="M4.41686 3.21311L7.70466 0.193294C7.82973 0.0694571 7.99863 -1.09666e-05 8.17463 -1.09666e-05C8.35064 -1.09666e-05 8.51953 0.0694571 8.6446 0.193294C8.7064 0.254145 8.75548 0.326681 8.78897 0.406679C8.82247 0.486676 8.83972 0.572538 8.83972 0.659266C8.83972 0.745994 8.82247 0.831856 8.78897 0.911853C8.75548 0.99185 8.7064 1.06439 8.6446 1.12524L4.88783 4.80701C4.76247 4.93067 4.59345 5 4.41736 5C4.24127 5 4.07226 4.93067 3.94689 4.80701L0.19512 1.12524C0.133323 1.06439 0.0842471 0.99185 0.0507491 0.911853C0.0172511 0.831856 0 0.745994 0 0.659266C0 0.572538 0.0172511 0.486676 0.0507491 0.406679C0.0842471 0.326681 0.133323 0.254145 0.19512 0.193294C0.320191 0.0694571 0.489085 -1.09666e-05 0.665091 -1.09666e-05C0.841098 -1.09666e-05 1.00999 0.0694571 1.13506 0.193294L4.41686 3.21311Z" fill="black"/>
</svg>
